<?xml version="1.0" encoding="UTF-8"?>
<svg width="8px" height="12px" viewBox="0 0 8 12" version="1.1" xmlns="http://www.w3.org/2000/svg" xmlns:xlink="http://www.w3.org/1999/xlink">
    <!-- Generator: Sketch 42 (36781) - http://www.bohemiancoding.com/sketch -->
    <title></title>
    <desc>Created with Sketch.</desc>
    <defs></defs>
    <g id="Pages" stroke="none" stroke-width="1" fill="none" fill-rule="evenodd">
        <g id="Home-Desktop" transform="translate(-988.000000, -3124.000000)" fill="#73AFE1">
            <g id="Events" transform="translate(100.000000, 2760.000000)">
                <path d="M895.972666,369.892851 C895.972666,369.646199 895.871103,369.406801 895.70425,369.239948 L890.974334,364.517287 C890.807481,364.343179 890.568083,364.241617 890.321431,364.241617 C890.074779,364.241617 889.835382,364.343179 889.668529,364.517287 L889.117189,365.061372 C888.950336,365.228225 888.848773,365.467623 888.848773,365.714275 C888.848773,365.960927 888.950336,366.200324 889.117189,366.374432 L892.642863,369.892851 L889.117189,373.418525 C888.950336,373.585378 888.848773,373.824775 888.848773,374.071427 C888.848773,374.31808 888.950336,374.557477 889.117189,374.731585 L889.668529,375.27567 C889.835382,375.442523 890.074779,375.544085 890.321431,375.544085 C890.568083,375.544085 890.807481,375.442523 890.974334,375.27567 L895.70425,370.553008 C895.871103,370.378901 895.972666,370.139503 895.972666,369.892851 Z" id=""></path>
            </g>
        </g>
    </g>
</svg>