<?xml version="1.0" encoding="UTF-8"?>
<svg width="11px" height="17px" viewBox="0 0 11 17" version="1.1" xmlns="http://www.w3.org/2000/svg" xmlns:xlink="http://www.w3.org/1999/xlink">
    <!-- Generator: Sketch 42 (36781) - http://www.bohemiancoding.com/sketch -->
    <title></title>
    <desc>Created with Sketch.</desc>
    <defs></defs>
    <g id="Home" stroke="none" stroke-width="1" fill="none" fill-rule="evenodd">
        <g id="Home-Desktop" transform="translate(-1257.000000, -919.000000)" fill="#FFFFFF">
            <path d="M1267.17522,927.103777 C1267.17522,926.754611 1267.03266,926.415715 1266.79844,926.179515 L1260.15893,919.494021 C1259.92472,919.247551 1259.58867,919.103777 1259.24243,919.103777 C1258.8962,919.103777 1258.56015,919.247551 1258.32594,919.494021 L1257.55201,920.264239 C1257.31779,920.500439 1257.17522,920.839335 1257.17522,921.188501 C1257.17522,921.537666 1257.31779,921.876563 1257.55201,922.123032 L1262.50109,927.103777 L1257.55201,932.094791 C1257.31779,932.330991 1257.17522,932.669887 1257.17522,933.019053 C1257.17522,933.368218 1257.31779,933.707114 1257.55201,933.953584 L1258.32594,934.723803 C1258.56015,934.960003 1258.8962,935.103777 1259.24243,935.103777 C1259.58867,935.103777 1259.92472,934.960003 1260.15893,934.723803 L1266.79844,928.038308 C1267.03266,927.791839 1267.17522,927.452942 1267.17522,927.103777 Z" id=""></path>
        </g>
    </g>
</svg>