<?xml version="1.0" encoding="UTF-8"?>
<svg width="7px" height="11px" viewBox="0 0 7 11" version="1.1" xmlns="http://www.w3.org/2000/svg" xmlns:xlink="http://www.w3.org/1999/xlink">
    <!-- Generator: Sketch 42 (36781) - http://www.bohemiancoding.com/sketch -->
    <title></title>
    <desc>Created with Sketch.</desc>
    <defs></defs>
    <g id="Pages" stroke="none" stroke-width="1" fill="none" fill-rule="evenodd">
        <g id="Resource-Desktop" transform="translate(-97.000000, -231.000000)" fill="#E64B4D">
            <path d="M103.746102,236.678566 C103.746102,236.469861 103.660164,236.267293 103.518981,236.12611 L99.5167441,232.130012 C99.3755609,231.98269 99.1729937,231.896753 98.9642881,231.896753 C98.7555824,231.896753 98.5530152,231.98269 98.411832,232.130012 L97.9453136,232.590392 C97.8041304,232.731575 97.7181928,232.934142 97.7181928,233.142848 C97.7181928,233.351553 97.8041304,233.554121 97.9453136,233.701442 L100.928576,236.678566 L97.9453136,239.661829 C97.8041304,239.803012 97.7181928,240.005579 97.7181928,240.214285 C97.7181928,240.42299 97.8041304,240.625558 97.9453136,240.772879 L98.411832,241.233259 C98.5530152,241.374442 98.7555824,241.46038 98.9642881,241.46038 C99.1729937,241.46038 99.3755609,241.374442 99.5167441,241.233259 L103.518981,237.237161 C103.660164,237.089839 103.746102,236.887272 103.746102,236.678566 Z" id="" transform="translate(100.732147, 236.678566) scale(-1, 1) translate(-100.732147, -236.678566) "></path>
        </g>
    </g>
</svg>