<?xml version="1.0" encoding="UTF-8"?>
<svg width="8px" height="12px" viewBox="0 0 8 12" version="1.1" xmlns="http://www.w3.org/2000/svg" xmlns:xlink="http://www.w3.org/1999/xlink">
    <!-- Generator: Sketch 42 (36781) - http://www.bohemiancoding.com/sketch -->
    <title></title>
    <desc>Created with Sketch.</desc>
    <defs></defs>
    <g id="Symbols" stroke="none" stroke-width="1" fill="none" fill-rule="evenodd">
        <g id="Blog-Post-List-+-Image" transform="translate(-176.000000, -522.000000)" fill="#E64B4D">
            <g id="Text">
                <g transform="translate(0.000000, 245.000000)">
                    <path d="M183.972666,282.892851 C183.972666,282.646199 183.871103,282.406801 183.70425,282.239948 L178.974334,277.517287 C178.807481,277.343179 178.568083,277.241617 178.321431,277.241617 C178.074779,277.241617 177.835382,277.343179 177.668529,277.517287 L177.117189,278.061372 C176.950336,278.228225 176.848773,278.467623 176.848773,278.714275 C176.848773,278.960927 176.950336,279.200324 177.117189,279.374432 L180.642863,282.892851 L177.117189,286.418525 C176.950336,286.585378 176.848773,286.824775 176.848773,287.071427 C176.848773,287.31808 176.950336,287.557477 177.117189,287.731585 L177.668529,288.27567 C177.835382,288.442523 178.074779,288.544085 178.321431,288.544085 C178.568083,288.544085 178.807481,288.442523 178.974334,288.27567 L183.70425,283.553008 C183.871103,283.378901 183.972666,283.139503 183.972666,282.892851 Z" id=""></path>
                </g>
            </g>
        </g>
    </g>
</svg>