<?xml version="1.0" encoding="UTF-8"?>
<svg width="18px" height="18px" viewBox="0 0 18 18" version="1.1" xmlns="http://www.w3.org/2000/svg" xmlns:xlink="http://www.w3.org/1999/xlink">
    <!-- Generator: Sketch 42 (36781) - http://www.bohemiancoding.com/sketch -->
    <title>SEARCH</title>
    <desc>Created with Sketch.</desc>
    <defs></defs>
    <g id="Symbols" stroke="none" stroke-width="1" fill="none" fill-rule="evenodd">
        <g id="Header---Desktop" transform="translate(-1024.000000, -118.000000)" fill="#73AFE1">
            <g id="SEARCH">
                <path d="M1035.25,118 C1036.47462,118 1037.604,118.301755 1038.63818,118.905273 C1039.67237,119.508792 1040.49121,120.327632 1041.09473,121.361816 C1041.69825,122.396001 1042,123.525385 1042,124.75 C1042,125.974615 1041.69825,127.103999 1041.09473,128.138184 C1040.49121,129.172368 1039.67237,129.991208 1038.63818,130.594727 C1037.604,131.198245 1036.47462,131.5 1035.25,131.5 C1033.93163,131.5 1032.73047,131.151371 1031.64648,130.454102 L1026.56641,135.560547 C1026.26172,135.853517 1025.90723,136 1025.50293,136 C1025.08691,136 1024.73242,135.853517 1024.43945,135.560547 C1024.14648,135.267577 1024,134.913088 1024,134.49707 C1024,134.081053 1024.14648,133.726564 1024.43945,133.433594 L1029.5459,128.353516 C1028.84863,127.269526 1028.5,126.068366 1028.5,124.75 C1028.5,123.525385 1028.80175,122.396001 1029.40527,121.361816 C1030.00879,120.327632 1030.82763,119.508792 1031.86182,118.905273 C1032.896,118.301755 1034.02538,118 1035.25,118 Z M1035.25,129.25 C1035.85938,129.25 1036.44092,129.131349 1036.99463,128.894043 C1037.54834,128.656737 1038.02734,128.33594 1038.43164,127.931641 C1038.83594,127.527342 1039.15674,127.048343 1039.39404,126.494629 C1039.63135,125.940915 1039.75,125.359378 1039.75,124.75 C1039.75,124.140622 1039.63135,123.559085 1039.39404,123.005371 C1039.15674,122.451657 1038.83594,121.972658 1038.43164,121.568359 C1038.02734,121.16406 1037.54834,120.843263 1036.99463,120.605957 C1036.44092,120.368651 1035.85938,120.25 1035.25,120.25 C1034.64062,120.25 1034.05908,120.368651 1033.50537,120.605957 C1032.95166,120.843263 1032.47266,121.16406 1032.06836,121.568359 C1031.66406,121.972658 1031.34326,122.451657 1031.10596,123.005371 C1030.86865,123.559085 1030.75,124.140622 1030.75,124.75 C1030.75,125.359378 1030.86865,125.940915 1031.10596,126.494629 C1031.34326,127.048343 1031.66406,127.527342 1032.06836,127.931641 C1032.47266,128.33594 1032.95166,128.656737 1033.50537,128.894043 C1034.05908,129.131349 1034.64062,129.25 1035.25,129.25 Z"></path>
            </g>
        </g>
    </g>
</svg>