<svg xmlns="http://www.w3.org/2000/svg" viewBox="0 0 115.55 57.54"><title>logo-footer-reverse</title><g id="Dot"><path id="Shape" d="M22.4,18.28a3.76,3.76,0,1,1-1.11-2.63,3.69,3.69,0,0,1,1.11,2.63" transform="translate(-0.23 -0.1)" fill="#e64c4c"/></g><g id="Logotype"><path id="Shape-2" data-name="Shape" d="M23.11,23h4.31v1.84h0a4.52,4.52,0,0,1,3.89-2.22c1.7,0,3.22.54,4,2.17a5,5,0,0,1,4.23-2.17c4.3,0,4.78,3.22,4.78,5.78v8H39.88V28.52c0-1.45-.71-2.3-1.85-2.3-1.91,0-2.09,1.45-2.09,3.61v6.56H31.51V28.78c0-1.58-.47-2.55-1.68-2.55-1.59,0-2.27.91-2.27,3.64V36.4H23.11Z" transform="translate(-0.23 -0.1)" fill="#fff"/><rect id="Rectangle-path" x="16.22" y="22.89" width="4.44" height="13.4" fill="#fff"/><path id="Shape-3" data-name="Shape" d="M50.67,29.55c0,2.35.68,3.87,2.69,3.87s2.67-2,2.67-3.87S55.35,26,53.39,26c-1.2,0-2.72.83-2.72,3.59ZM46.4,23h4.23v1.55h0a4.33,4.33,0,0,1,3.73-1.93c4.26,0,6.06,3.61,6.06,7.38,0,3.48-1.88,6.79-5.73,6.79A4.58,4.58,0,0,1,50.87,35h0v5.94H46.4Z" transform="translate(-0.23 -0.1)" fill="#fff"/><path id="Shape-4" data-name="Shape" d="M67.49,34.07c2.12,0,2.83-1.19,2.72-4a12.38,12.38,0,0,1-2.74.73c-1,.25-1.83.64-1.83,1.69s.86,1.53,1.85,1.53Zm-5.75-7a4.11,4.11,0,0,1,2.12-3.59,8.71,8.71,0,0,1,4.31-.93c3.21,0,6.32.69,6.32,4.49v5.86A7.61,7.61,0,0,0,75,36.37H70.55a5,5,0,0,1-.26-1.26,6.16,6.16,0,0,1-4.47,1.65c-2.58,0-4.63-1.29-4.63-4,0-4.37,4.81-4,7.89-4.65.76-.16,1.18-.41,1.18-1.24,0-1-1.23-1.39-2.14-1.39a2,2,0,0,0-2.22,1.68Z" transform="translate(-0.23 -0.1)" fill="#fff"/><path id="Shape-5" data-name="Shape" d="M85.34,27.9A2.09,2.09,0,0,0,83.17,26c-2.48,0-2.86,2.09-2.86,4s.75,3.51,2.63,3.51a2.36,2.36,0,0,0,2.54-2.29h4.3c-.4,3.59-3.22,5.66-6.82,5.66-4.08,0-7.11-2.76-7.11-6.87s2.75-7.3,7.11-7.3c3.37,0,6.37,1.75,6.68,5.29Z" transform="translate(-0.23 -0.1)" fill="#fff"/><path id="Shape-6" data-name="Shape" d="M99.26,25.83H96.52v6.09c0,1.06.63,1.3,1.6,1.3.36,0,.75-.06,1.14-.06v3.23c-.81,0-1.62.13-2.43.13-3.79,0-4.75-1.08-4.75-4.73v-6H89.83V23h2.25V18.94h4.44v4h2.75Z" transform="translate(-0.23 -0.1)" fill="#fff"/><path id="Shape-7" data-name="Shape" d="M23.11,23h4.31v1.84h0a4.52,4.52,0,0,1,3.89-2.22c1.7,0,3.22.54,4,2.17a5,5,0,0,1,4.23-2.17c4.3,0,4.78,3.22,4.78,5.78v8H39.88V28.52c0-1.45-.71-2.3-1.85-2.3-1.91,0-2.09,1.45-2.09,3.61v6.56H31.51V28.78c0-1.58-.47-2.55-1.68-2.55-1.59,0-2.27.91-2.27,3.64V36.4H23.11Z" transform="translate(-0.23 -0.1)" fill="#fff"/><rect id="Rectangle-path-2" data-name="Rectangle-path" x="16.22" y="22.89" width="4.44" height="13.4" fill="#fff"/><path id="Shape-8" data-name="Shape" d="M14.27,32.54A14.88,14.88,0,0,1,3.83,15.38a15.1,15.1,0,0,1,29.88,2.9,15.44,15.44,0,0,1-.2,2.44,5.91,5.91,0,0,1,2,.92,6.84,6.84,0,0,1,1.34-.7A18.2,18.2,0,0,0,21.88.39,18.38,18.38,0,0,0,.63,14.52,18.17,18.17,0,0,0,14.27,35.94Z" transform="translate(-0.23 -0.1)" fill="#fff"/><path id="Shape-9" data-name="Shape" d="M14.27,24.36a7.4,7.4,0,0,1-2.17-9.85,7.6,7.6,0,0,1,9.74-3,7.41,7.41,0,0,1,3.86,9.32h3.41a5.36,5.36,0,0,1,.57-.17,11.18,11.18,0,0,0-8-13.15A11.35,11.35,0,0,0,7.94,14.59a11.15,11.15,0,0,0,6.33,14Z" transform="translate(-0.23 -0.1)" fill="#fff"/><rect id="Rectangle-path-3" data-name="Rectangle-path" x="16.23" y="43.25" width="4.29" height="13.94" fill="#fff"/><rect id="Rectangle-path-4" data-name="Rectangle-path" x="16.23" y="38.15" width="4.29" height="3.59" fill="#fff"/><path id="Shape-10" data-name="Shape" d="M34.76,44.61a4,4,0,0,0-1.62-1.2A6.59,6.59,0,0,0,30.58,43a5.62,5.62,0,0,0-2.43.56,4.31,4.31,0,0,0-1.51,1.16V43.35h-4.1V57.29h4.29V50a4.62,4.62,0,0,1,.63-2.76,2.28,2.28,0,0,1,2-.78,1.77,1.77,0,0,1,1.62.68,4.63,4.63,0,0,1,.47,2.32v7.84h4.3V48.78a10.62,10.62,0,0,0-.23-2.32A4.69,4.69,0,0,0,34.76,44.61Z" transform="translate(-0.23 -0.1)" fill="#fff"/><path id="Shape-11" data-name="Shape" d="M48.78,49.86a5.2,5.2,0,0,0-1.45-.73,16.58,16.58,0,0,0-1.61-.45l-1.55-.33A12.05,12.05,0,0,1,42.86,48a2.29,2.29,0,0,1-.86-.45.82.82,0,0,1-.13-1.06,1.21,1.21,0,0,1,.41-.3,2.26,2.26,0,0,1,.57-.14,4.82,4.82,0,0,1,.65,0,3.52,3.52,0,0,1,1.6.34,1.35,1.35,0,0,1,.66,1.21l0,.26h4.11l0-.31a4.42,4.42,0,0,0-2.12-3.58,6.16,6.16,0,0,0-1.94-.73,11.58,11.58,0,0,0-4.39,0,6.24,6.24,0,0,0-2,.7A4,4,0,0,0,38,45.32a4.26,4.26,0,0,0-.55,2.26,3.11,3.11,0,0,0,.4,1.63,3.48,3.48,0,0,0,1.06,1.1,5.83,5.83,0,0,0,1.45.68c.51.17,1,.31,1.61.44a23,23,0,0,1,3.06.81c.63.24.93.55.93,1a1.08,1.08,0,0,1-.19.65,1.59,1.59,0,0,1-.49.44,2.5,2.5,0,0,1-.71.25,3.7,3.7,0,0,1-1.75,0,2.55,2.55,0,0,1-.81-.35,1.92,1.92,0,0,1-.56-.61,1.71,1.71,0,0,1-.21-.88v-.29H37.11v.29a4.73,4.73,0,0,0,.66,2.37,4.86,4.86,0,0,0,1.53,1.53,6.41,6.41,0,0,0,2.1.81,11.74,11.74,0,0,0,2.36.24,12,12,0,0,0,2.32-.23,6.2,6.2,0,0,0,2.08-.8,4.33,4.33,0,0,0,2.07-3.88,3.47,3.47,0,0,0-.41-1.7A3.4,3.4,0,0,0,48.78,49.86Z" transform="translate(-0.23 -0.1)" fill="#fff"/><path id="Shape-12" data-name="Shape" d="M57.7,39.34H53.4v4H51.15v3h2.26V54a3.56,3.56,0,0,0,.37,1.76,2.68,2.68,0,0,0,1,1.07,4.2,4.2,0,0,0,1.46.49,11.76,11.76,0,0,0,1.68.12c.36,0,.74,0,1.14,0a7.89,7.89,0,0,0,1.09-.11l.24,0V53.81l-.35.07a4.34,4.34,0,0,1-.52.08L59,54c-.72,0-1-.14-1.05-.23s-.23-.33-.23-1V46.37h2.72v-3H57.71Z" transform="translate(-0.23 -0.1)" fill="#fff"/><rect id="Rectangle-path-5" data-name="Rectangle-path" x="61.51" y="43.25" width="4.29" height="13.94" fill="#fff"/><rect id="Rectangle-path-6" data-name="Rectangle-path" x="61.51" y="38.15" width="4.29" height="3.59" fill="#fff"/><path id="Shape-13" data-name="Shape" d="M73.67,39.34h-4.3v4H67.12v3h2.25V54a3.68,3.68,0,0,0,.38,1.76,2.68,2.68,0,0,0,1,1.07,4.13,4.13,0,0,0,1.46.49,11.62,11.62,0,0,0,1.67.12c.37,0,.75,0,1.15,0a7.91,7.91,0,0,0,1.08-.11l.24,0V53.81l-.34.07a4.34,4.34,0,0,1-.52.08L75,54c-.72,0-1-.14-1.06-.23s-.22-.33-.22-1V46.37H76.4v-3H73.68Z" transform="translate(-0.23 -0.1)" fill="#fff"/><path id="Shape-14" data-name="Shape" d="M86.58,50.66A4.7,4.7,0,0,1,86,53.42a2.3,2.3,0,0,1-2,.78,1.76,1.76,0,0,1-1.62-.68,4.51,4.51,0,0,1-.48-2.32V43.36h-4.3v8.51a11.27,11.27,0,0,0,.23,2.32A4.69,4.69,0,0,0,78.65,56a3.85,3.85,0,0,0,1.62,1.19,7.19,7.19,0,0,0,2.56.41,5.83,5.83,0,0,0,2.43-.55,4.34,4.34,0,0,0,1.5-1.15V57.3h4.11V43.35h-4.3Z" transform="translate(-0.23 -0.1)" fill="#fff"/><path id="Shape-15" data-name="Shape" d="M98.41,39.34H94.12v4H91.87v3h2.25V54a3.56,3.56,0,0,0,.37,1.76,2.68,2.68,0,0,0,1,1.07A4.2,4.2,0,0,0,97,57.3a11.87,11.87,0,0,0,1.68.12c.36,0,.75,0,1.14,0a7.89,7.89,0,0,0,1.09-.11l.24,0V53.81l-.35.07a4.5,4.5,0,0,1-.51.08l-.58,0c-.71,0-1-.14-1-.23s-.23-.33-.23-1V46.37h2.72v-3H98.41Z" transform="translate(-0.23 -0.1)" fill="#fff"/><path id="Shape-16" data-name="Shape" d="M115.48,48.17a7.62,7.62,0,0,0-1.24-2.64A6.41,6.41,0,0,0,112,43.67a7,7,0,0,0-3.15-.69,7.36,7.36,0,0,0-2.93.57,6.77,6.77,0,0,0-3.75,3.89,7.91,7.91,0,0,0-.52,2.89,8.41,8.41,0,0,0,.5,2.94,6.75,6.75,0,0,0,1.44,2.32,6.24,6.24,0,0,0,2.27,1.51,8,8,0,0,0,3,.52A7.44,7.44,0,0,0,113,56.54,6.38,6.38,0,0,0,115.48,53l.12-.37h-3.86l-.06.2a2.11,2.11,0,0,1-.88,1,3.21,3.21,0,0,1-1.78.51,3.07,3.07,0,0,1-2.21-.73,3.19,3.19,0,0,1-.81-2.1h9.74l0-.26a9.85,9.85,0,0,0-.28-3.06Zm-8-1.58a2.89,2.89,0,0,1,1.35-.27,2.38,2.38,0,0,1,1.82.63,3.67,3.67,0,0,1,.79,1.65H106a4.37,4.37,0,0,1,.12-.52,2.46,2.46,0,0,1,1.3-1.49Z" transform="translate(-0.23 -0.1)" fill="#fff"/></g></svg>