<?xml version="1.0" encoding="UTF-8"?>
<svg width="135px" height="68px" viewBox="0 0 135 68" version="1.1" xmlns="http://www.w3.org/2000/svg" xmlns:xlink="http://www.w3.org/1999/xlink">
    <!-- Generator: Sketch 42 (36781) - http://www.bohemiancoding.com/sketch -->
    <title>logo</title>
    <desc>Created with Sketch.</desc>
    <defs></defs>
    <g id="Symbols" stroke="none" stroke-width="1" fill="none" fill-rule="evenodd">
        <g id="Header---Desktop" transform="translate(-104.000000, 0.000000)" fill-rule="nonzero">
            <g id="logo">
                <g transform="translate(104.000000, 0.000000)">
                    <g id="Layer_1">
                        <rect id="Rectangle-path" fill="#346EA2" x="19.1566667" y="50.8229841" width="4.99333333" height="16.3437798"></rect>
                        <rect id="Rectangle-path" fill="#346EA2" x="19.1566667" y="44.8475177" width="4.99333333" height="4.21368258"></rect>
                        <path d="M40.45,52.3027498 C39.9552013,51.6780047 39.3047673,51.1930156 38.5633333,50.895977 C37.6127025,50.5360644 36.5999225,50.3669236 35.5833333,50.398298 C34.6040994,50.405643 33.6391049,50.632447 32.76,51.06187 C32.0799403,51.3809198 31.4789872,51.8454029 31,52.4221927 L31,50.8229841 L26.23,50.8229841 L26.23,67.1667639 L31.23,67.1667639 L31.23,58.6133201 C31.23,57.0970579 31.4733333,56.0054819 31.9533333,55.3717706 C32.4333333,54.7380592 33.1833333,54.4560411 34.2466667,54.4560411 C35.17,54.4560411 35.7833333,54.7181521 36.13,55.2589633 C36.4766667,55.7997745 36.6866667,56.7553183 36.6866667,57.9796088 L36.6866667,67.1700818 L41.6866667,67.1700818 L41.6866667,57.189958 C41.6937046,56.2751874 41.6043268,55.3622049 41.42,54.4659947 C41.2611488,53.6824552 40.9298788,52.9436737 40.45,52.3027498 Z" id="Shape" fill="#346EA2"></path>
                        <path d="M56.7733333,58.4507449 C56.2561432,58.0865873 55.6878003,57.800381 55.0866667,57.6013727 C54.4717011,57.3946618 53.8464246,57.2196883 53.2133333,57.0771508 C52.5866667,56.9311649 51.98,56.7984505 51.4066667,56.6823254 C50.889329,56.5779267 50.3784789,56.4438833 49.8766667,56.2808643 C49.5125062,56.170291 49.173038,55.9912081 48.8766667,55.7533245 C48.5279844,55.4287468 48.4672757,54.9003631 48.7333333,54.505809 C48.8618601,54.3547467 49.0239006,54.2354842 49.2066667,54.1574337 C49.4190897,54.0674118 49.6437596,54.0092688 49.8733333,53.984905 C50.1246219,53.9573394 50.3771927,53.9429421 50.63,53.9417728 C51.2722384,53.9258765 51.9089385,54.0635481 52.4866667,54.3432339 C52.95,54.5821198 53.2,55.0466202 53.2533333,55.7566424 L53.2766667,56.0652034 L58.0633333,56.0652034 L58.0333333,55.7068744 C57.9840398,54.7992431 57.7091527,53.9179873 57.2333333,53.1421684 C56.807362,52.4799761 56.2378864,51.9210796 55.5666667,51.5064633 C54.8707861,51.0900342 54.1070355,50.7980794 53.31,50.6438196 C51.621711,50.3251462 49.888289,50.3251462 48.2,50.6438196 C47.3917534,50.787165 46.6139555,51.0665457 45.9,51.4699668 C45.2053853,51.8714282 44.6249236,52.4423444 44.2133333,53.128897 C43.7585689,53.9382611 43.5360206,54.856459 43.57,55.7831852 C43.5500539,56.4522786 43.7136956,57.1141307 44.0433333,57.6975906 C44.3504668,58.212527 44.7696249,58.652414 45.27,58.9849204 C45.790431,59.3291162 46.3571545,59.598317 46.9533333,59.7845248 C47.5566667,59.9769607 48.1866667,60.1494894 48.83,60.2954752 C50.0392169,60.5287188 51.2300544,60.8480539 52.3933333,61.251019 C53.13,61.5264014 53.4733333,61.891366 53.4733333,62.3956808 C53.4850242,62.6660979 53.4103397,62.9332491 53.26,63.1587887 C53.108474,63.3697877 52.9114391,63.5443688 52.6833333,63.6697392 C52.4265181,63.8094822 52.1501164,63.9101353 51.8633333,63.9683466 C51.1885095,64.1163372 50.4879137,64.1015485 49.82,63.9252144 C49.4825683,63.8426213 49.1629622,63.6998596 48.8766667,63.5038462 C48.6097989,63.3166893 48.3878295,63.0730899 48.2266667,62.7905062 C48.0559549,62.4737815 47.9720308,62.1179016 47.9833333,61.7586516 L47.9833333,61.4268656 L43.19,61.4268656 L43.19,61.7586516 C43.197011,62.7383033 43.4613119,63.6990951 43.9566667,64.5456543 C44.4058073,65.2697303 45.0159129,65.8815442 45.74,66.333981 C46.4902217,66.7927909 47.3164055,67.1152145 48.18,67.2862069 C49.084596,67.4730078 50.0061427,67.5664025 50.93,67.5649072 C51.8365669,67.5647702 52.7409217,67.4758658 53.63,67.2994783 C54.4858599,67.1377395 55.3041488,66.8193682 56.0433333,66.3605239 C57.6148476,65.3872569 58.5362852,63.6455402 58.4533333,61.8051017 C58.4734655,61.112117 58.3114549,60.4259104 57.9833333,59.8143855 C57.683876,59.2780507 57.2710409,58.8127956 56.7733333,58.4507449 Z" id="Shape" fill="#346EA2"></path>
                        <path d="M67.15,46.1182582 L62.15,46.1182582 L62.15,50.8196662 L59.5333333,50.8196662 L59.5333333,54.3664589 L62.1533333,54.3664589 L62.1533333,63.2848674 C62.1252246,64.0002578 62.2752299,64.7114702 62.59,65.3552122 C62.8663752,65.8765691 63.2845248,66.3100238 63.7966667,66.6060455 C64.3226519,66.9000584 64.899222,67.0936069 65.4966667,67.1767175 C66.1433413,67.271898 66.796298,67.3184797 67.45,67.3160676 C67.8733333,67.3160676 68.32,67.3160676 68.7833333,67.2862069 C69.205493,67.2693631 69.6262527,67.2272609 70.0433333,67.1601282 L70.3233333,67.1136782 L70.3233333,63.0924315 L69.9233333,63.1720601 C69.7239605,63.2117871 69.5225461,63.2405853 69.32,63.2583245 C69.11,63.2782317 68.8833333,63.2881852 68.6533333,63.2881852 C67.82,63.2881852 67.5266667,63.1222922 67.4266667,63.0227564 C67.3266667,62.9232206 67.16,62.6312489 67.16,61.8017838 L67.16,54.3697767 L70.3333333,54.3697767 L70.3333333,50.8229841 L67.1633333,50.8229841 L67.15,46.1182582 Z" id="Shape" fill="#346EA2"></path>
                        <rect id="Rectangle-path" fill="#346EA2" x="71.8433333" y="50.8229841" width="4.99333333" height="16.3437798"></rect>
                        <rect id="Rectangle-path" fill="#346EA2" x="71.8433333" y="44.8475177" width="4.99333333" height="4.21368258"></rect>
                        <path d="M85.7366667,46.1182582 L80.7366667,46.1182582 L80.7366667,50.8196662 L78.1166667,50.8196662 L78.1166667,54.3664589 L80.7366667,54.3664589 L80.7366667,63.2848674 C80.708558,64.0002578 80.8585633,64.7114702 81.1733333,65.3552122 C81.4497086,65.8765691 81.8678581,66.3100238 82.38,66.6060455 C82.9059852,66.9000584 83.4825553,67.0936069 84.08,67.1767175 C84.7266747,67.271898 85.3796314,67.3184797 86.0333333,67.3160676 C86.4566667,67.3160676 86.9033333,67.3160676 87.3666667,67.2862069 C87.7888263,67.2693631 88.2095861,67.2272609 88.6266667,67.1601282 L88.9066667,67.1136782 L88.9066667,63.0924315 L88.5066667,63.1720601 C88.3072938,63.2117871 88.1058794,63.2405853 87.9033333,63.2583245 C87.6933333,63.2782317 87.4666667,63.2881852 87.2366667,63.2881852 C86.4033333,63.2881852 86.11,63.1222922 86.01,63.0227564 C85.91,62.9232206 85.7433333,62.6312489 85.7433333,61.8017838 L85.7433333,54.3697767 L88.9133333,54.3697767 L88.9133333,50.8229841 L85.7433333,50.8229841 L85.7366667,46.1182582 Z" id="Shape" fill="#346EA2"></path>
                        <path d="M100.763333,59.3896994 C100.763333,60.9059615 100.52,61.9975376 100.036667,62.6312489 C99.5533333,63.2649602 98.8066667,63.5469783 97.7433333,63.5469783 C96.82,63.5469783 96.2066667,63.2848674 95.86,62.7440561 C95.5133333,62.2032449 95.3033333,61.251019 95.3033333,60.0267286 L95.3033333,50.8362555 L90.3033333,50.8362555 L90.3033333,60.8130615 C90.2958766,61.7278507 90.3852587,62.6408768 90.57,63.5370248 C90.725217,64.3199365 91.0531037,65.0587899 91.53,65.7002697 C92.0233831,66.3247296 92.6760806,66.805965 93.42,67.093771 C94.3721932,67.4420942 95.3826679,67.6054074 96.3966667,67.5748607 C97.3732955,67.5709239 98.3371283,67.3534541 99.22,66.9378316 C99.8980589,66.6216323 100.49611,66.1578846 100.97,65.5808267 L100.97,67.1800354 L105.75,67.1800354 L105.75,50.8229841 L100.75,50.8229841 L100.763333,59.3896994 Z" id="Shape" fill="#346EA2"></path>
                        <path d="M114.533333,46.1182582 L109.533333,46.1182582 L109.533333,50.8196662 L106.913333,50.8196662 L106.913333,54.3664589 L109.533333,54.3664589 L109.533333,63.2848674 C109.505225,64.0002578 109.65523,64.7114702 109.97,65.3552122 C110.246375,65.8765691 110.664525,66.3100238 111.176667,66.6060455 C111.702652,66.9000584 112.279222,67.0936069 112.876667,67.1767175 C113.523341,67.271898 114.176298,67.3184797 114.83,67.3160676 C115.253333,67.3160676 115.7,67.3160676 116.163333,67.2862069 C116.585493,67.2693631 117.006253,67.2272609 117.423333,67.1601282 L117.703333,67.1136782 L117.703333,63.0924315 L117.303333,63.1720601 C117.10396,63.2117871 116.902546,63.2405853 116.7,63.2583245 C116.49,63.2782317 116.263333,63.2881852 116.033333,63.2881852 C115.2,63.2881852 114.906667,63.1222922 114.806667,63.0227564 C114.706667,62.9232206 114.54,62.6312489 114.54,61.8017838 L114.54,54.3697767 L117.71,54.3697767 L117.71,50.8229841 L114.533333,50.8229841 L114.533333,46.1182582 Z" id="Shape" fill="#346EA2"></path>
                        <path d="M134.39,56.4699823 C134.113777,55.3578374 133.624866,54.3090808 132.95,53.3810544 C132.274237,52.4672329 131.39445,51.7221469 130.38,51.204538 C129.24155,50.6434735 127.983349,50.3656772 126.713333,50.3949801 C125.544069,50.3812275 124.384468,50.6071018 123.306667,51.0585522 C121.279918,51.9103759 119.697965,53.5594525 118.936667,55.6139744 C118.530855,56.699604 118.327523,57.8498421 118.336667,59.0081454 C118.323819,60.1836817 118.521346,61.3521055 118.92,62.4587202 C119.284966,63.4684705 119.851958,64.3940211 120.586667,65.1793656 C121.329242,65.9540745 122.233959,66.556685 123.236667,66.9444673 C124.344981,67.3660324 125.523628,67.5743219 126.71,67.5582714 C128.383431,67.6042311 130.034051,67.1638031 131.46,66.2908488 C132.793333,65.4447944 133.77,64.0280681 134.4,62.0804841 L134.54,61.6458444 L130.04,61.6458444 L129.97,61.8847303 C129.77264,62.3882723 129.411086,62.8112432 128.943333,63.0857958 C128.332823,63.4919398 127.610713,63.6994524 126.876667,63.6796927 C125.753333,63.6796927 124.876667,63.3943568 124.306667,62.8336384 C123.776667,62.3226879 123.46,61.5064943 123.363333,60.371786 L134.696667,60.371786 L134.716667,60.063225 C134.799241,58.8558206 134.688984,57.64302 134.39,56.4699823 L134.39,56.4699823 Z M125.03,54.6186163 C125.521679,54.3940344 126.059378,54.2872212 126.6,54.3067374 C127.553333,54.3067374 128.266667,54.5555769 128.716667,55.0466202 C129.180022,55.6036196 129.49524,56.2676398 129.633333,56.9776149 L123.383333,56.9776149 C123.419557,56.7726945 123.467412,56.5699805 123.526667,56.3704465 C123.633892,56.013427 123.810574,55.6808671 124.046667,55.3916777 C124.316299,55.066795 124.65274,54.8031907 125.033333,54.6186163 L125.03,54.6186163 Z" id="Shape" fill="#346EA2"></path>
                        <path d="M26.0666667,21.4366954 C26.0666604,23.8486739 24.1032186,25.8044776 21.6799924,25.8063048 C19.2567662,25.8081321 17.2903495,23.8552918 17.2866717,21.443316 C17.2829939,19.0313403 19.243446,17.0725676 21.6666667,17.0670734 C22.8326987,17.0644296 23.9518831,17.5236318 24.7773319,18.3433816 C25.6027807,19.1631314 26.0666697,20.276073 26.0666667,21.4366954" id="Shape" fill="#E64C4C"></path>
                        <path d="M26.8933333,26.9576149 L31.91,26.9576149 L31.91,29.1075884 L31.97,29.1075884 C32.9097813,27.5023341 34.6334304,26.5125857 36.5,26.5063859 C38.4766667,26.5063859 40.24,27.1400973 41.09,29.0478669 C42.3366667,27.3889368 43.8866667,26.5063859 46.0166667,26.5063859 C51.0166667,26.5063859 51.58,30.2887467 51.58,33.2847745 L51.58,42.6643656 L46.4133333,42.6643656 L46.4133333,33.4340782 C46.4133333,31.7419695 45.59,30.7399757 44.2533333,30.7399757 C42.0366667,30.7399757 41.8233333,32.4354023 41.8233333,34.9768833 L41.8233333,42.6643656 L36.6666667,42.6643656 L36.6666667,33.7393214 C36.6666667,31.8912732 36.12,30.7532471 34.72,30.7532471 C32.8633333,30.7532471 32.0733333,31.8149624 32.0733333,35.0200155 L32.0733333,42.677637 L26.8933333,42.677637 L26.8933333,26.9576149 Z" id="Shape" fill="#346EA2"></path>
                        <rect id="Rectangle-path" fill="#346EA2" x="19.14" y="26.9542971" width="5.17" height="15.7067507"></rect>
                        <path d="M58.97,34.6450973 C58.97,37.3956034 59.76,39.1839302 62.1033333,39.1839302 C64.4466667,39.1839302 65.2033333,36.7950707 65.2033333,34.6450973 C65.2033333,32.6543811 64.4133333,30.4380504 62.1333333,30.4380504 C60.7333333,30.4380504 58.97,31.4068656 58.97,34.6450973 L58.97,34.6450973 Z M54,26.9576149 L58.9266667,26.9576149 L58.9266667,28.7724845 L58.9866667,28.7724845 C59.940521,27.3219914 61.5787651,26.4640241 63.32,26.5030681 C68.2766667,26.5030681 70.3733333,30.7399757 70.3733333,35.1560477 C70.3733333,39.2403338 68.1833333,43.1189125 63.7066667,43.1189125 C61.76,43.1189125 60.27,42.3923011 59.2066667,40.9722569 L59.1466667,40.9722569 L59.1466667,47.9397635 L54,47.9397635 L54,26.9576149 Z" id="Shape" fill="#346EA2"></path>
                        <path d="M78.55,39.9404023 C81.0133333,39.9404023 81.8333333,38.546901 81.7133333,35.2953979 C80.9833333,35.7499447 79.6466667,35.839527 78.52,36.1414523 C77.3933333,36.4433775 76.39,36.8979244 76.39,38.1321684 C76.39,39.3664125 77.39,39.9171773 78.5466667,39.9171773 L78.55,39.9404023 Z M71.8566667,31.778466 C71.95,29.7213926 72.92,28.3876127 74.32,27.5714191 C75.72,26.7552255 77.5433333,26.4831609 79.3366667,26.4831609 C83.0766667,26.4831609 86.6933333,27.2993546 86.6933333,31.7486052 L86.6933333,38.6198939 C86.6933333,39.947038 86.6933333,41.4035787 87.3033333,42.6444584 L82.1033333,42.6444584 C81.9415682,42.1643317 81.8396936,41.6662375 81.8,41.1613749 C80.4666667,42.5548762 78.4833333,43.0956874 76.6,43.0956874 C73.6,43.0956874 71.2166667,41.5827431 71.2166667,38.3445115 C71.2166667,33.2316888 76.81,33.6231963 80.4,32.8965849 C81.28,32.7141026 81.7666667,32.4121773 81.7666667,31.4433621 C81.7666667,30.2655217 80.34,29.8109748 79.2733333,29.8109748 C77.8433333,29.8109748 76.94,30.4446861 76.69,31.778466 L71.8566667,31.778466 Z" id="Shape" fill="#346EA2"></path>
                        <path d="M99.3166667,32.7074668 C99.2866667,31.3803227 98.1,30.4380504 96.7933333,30.4380504 C93.9033333,30.4380504 93.46,32.8899492 93.46,35.0830548 C93.46,37.1102675 94.34,39.1972016 96.53,39.1972016 C98.3233333,39.1972016 99.2366667,38.1686649 99.48,36.5064169 L104.48,36.5064169 C104.023333,40.7134637 100.743333,43.1421375 96.5466667,43.1421375 C91.8,43.1421375 88.2766667,39.9039058 88.2766667,35.0930084 C88.2766667,30.1162179 91.47,26.529611 96.5466667,26.529611 C100.466667,26.529611 103.963333,28.5866844 104.326667,32.7340097 L99.3166667,32.7074668 Z" id="Shape" fill="#346EA2"></path>
                        <path d="M115.523333,30.2854288 L112.333333,30.2854288 L112.333333,37.4287821 C112.333333,38.6696618 113.063333,38.9417263 114.186667,38.9417263 C114.613333,38.9417263 115.07,38.8820049 115.52,38.8820049 L115.52,42.6643656 C114.576667,42.6942263 113.636667,42.8169872 112.69,42.8169872 C108.283333,42.8169872 107.16,41.5462467 107.16,37.2761605 L107.16,30.2854288 L104.543333,30.2854288 L104.543333,26.9675685 L107.16,26.9675685 L107.16,22.206439 L112.333333,22.206439 L112.333333,26.9542971 L115.526667,26.9542971 L115.523333,30.2854288 Z" id="Shape" fill="#346EA2"></path>
                        <path d="M26.8933333,26.9576149 L31.91,26.9576149 L31.91,29.1075884 L31.97,29.1075884 C32.9097813,27.5023341 34.6334304,26.5125857 36.5,26.5063859 C38.4766667,26.5063859 40.24,27.1400973 41.09,29.0478669 C42.3366667,27.3889368 43.8866667,26.5063859 46.0166667,26.5063859 C51.0166667,26.5063859 51.58,30.2887467 51.58,33.2847745 L51.58,42.6643656 L46.4133333,42.6643656 L46.4133333,33.4340782 C46.4133333,31.7419695 45.59,30.7399757 44.2533333,30.7399757 C42.0366667,30.7399757 41.8233333,32.4354023 41.8233333,34.9768833 L41.8233333,42.6643656 L36.6666667,42.6643656 L36.6666667,33.7393214 C36.6666667,31.8912732 36.12,30.7532471 34.72,30.7532471 C32.8633333,30.7532471 32.0733333,31.8149624 32.0733333,35.0200155 L32.0733333,42.677637 L26.8933333,42.677637 L26.8933333,26.9576149 Z" id="Shape" fill="#346EA2"></path>
                        <rect id="Rectangle-path" fill="#346EA2" x="19.14" y="26.9542971" width="5.17" height="15.7067507"></rect>
                        <path d="M16.6066667,38.1553935 C7.96028935,35.5589557 2.70434847,26.8558749 4.45706938,18.0374109 C6.20979029,9.21894688 14.3990874,3.16343342 23.3873932,4.03952704 C32.3756989,4.91562067 39.2292433,12.4373657 39.23,21.4267418 C39.2293057,22.3859908 39.1501554,23.3435915 38.9933333,24.2900553 C39.8180447,24.505643 40.5955718,24.8712292 41.2866667,25.3683599 C41.7774469,25.0383087 42.3041207,24.7645075 42.8566667,24.5521662 C44.5501504,13.161622 36.8470159,2.49207151 25.4607862,0.457270403 C14.0745566,-1.57753071 3.12363029,5.75840494 0.730463311,17.0239108 C-1.66270367,28.2894166 5.36749699,39.4097599 16.6066667,42.1368258 L16.6066667,38.1553935 Z" id="Shape" fill="#346EA2"></path>
                        <path d="M16.6066667,28.5568236 C12.885729,25.9428328 11.7893918,20.931524 14.0814644,17.0142356 C16.373537,13.0969471 21.293578,11.5733184 25.4138347,13.5048493 C29.5340914,15.4363802 31.4875854,20.1822463 29.9133333,24.4360411 L33.8733333,24.4360411 C34.0933333,24.3564125 34.3133333,24.2900553 34.54,24.2303338 C36.0304661,17.4577346 31.9635589,10.7014138 25.260845,8.81494652 C18.5581311,6.92847928 11.5389344,10.5646354 9.24567377,17.1112894 C6.95241317,23.6579434 10.1786202,30.8497724 16.6066667,33.5203426 L16.6066667,28.5568236 Z" id="Shape" fill="#346EA2"></path>
                    </g>
                </g>
            </g>
        </g>
    </g>
</svg>