<?xml version="1.0" encoding="UTF-8"?>
<svg width="116px" height="58px" viewBox="0 0 116 58" version="1.1" xmlns="http://www.w3.org/2000/svg" xmlns:xlink="http://www.w3.org/1999/xlink">
    <!-- Generator: Sketch 42 (36781) - http://www.bohemiancoding.com/sketch -->
    <title>logo</title>
    <desc>Created with Sketch.</desc>
    <defs></defs>
    <g id="Symbols" stroke="none" stroke-width="1" fill="none" fill-rule="evenodd">
        <g id="Footer---Desktop" transform="translate(-1000.000000, -72.000000)" fill-rule="nonzero">
            <g id="footer">
                <g id="logo" transform="translate(1000.000000, 72.000000)">
                    <g id="Layer_1">
                        <rect id="Rectangle-path" fill="#346EA2" x="16.4605432" y="43.3490158" width="4.2905679" height="13.9402828"></rect>
                        <rect id="Rectangle-path" fill="#346EA2" x="16.4605432" y="38.2522945" width="4.2905679" height="3.59402338"></rect>
                        <path d="M34.757037,44.6111689 C34.3318766,44.0782981 33.7729853,43.6646309 33.1359012,43.4112745 C32.3190629,43.1042902 31.4488223,42.9600231 30.5753086,42.9867836 C29.7338928,42.9930484 28.9047124,43.1864989 28.1493333,43.5527715 C27.5649858,43.8249022 27.0486112,44.2210789 26.637037,44.7130468 L26.637037,43.3490158 L22.5383704,43.3490158 L22.5383704,57.2892986 L26.8346667,57.2892986 L26.8346667,49.9937142 C26.8346667,48.7004317 27.0437531,47.7693816 27.4561975,47.2288631 C27.868642,46.6883446 28.5130864,46.4477998 29.4267654,46.4477998 C30.2201481,46.4477998 30.7471605,46.671365 31.045037,47.1326452 C31.3429136,47.5939253 31.523358,48.408948 31.523358,49.4531957 L31.523358,57.2921286 L35.8196543,57.2921286 L35.8196543,48.7796701 C35.8257018,47.9994245 35.748903,47.2207042 35.5905185,46.4562896 C35.4540241,45.7879765 35.1693774,45.1578393 34.757037,44.6111689 Z" id="Shape" fill="#346EA2"></path>
                        <path d="M48.7830123,49.8550471 C48.3386119,49.5444421 47.850258,49.3003249 47.3337284,49.1305826 C46.8053136,48.9542704 46.2680389,48.8050283 45.7240494,48.6834521 C45.1855802,48.5589348 44.6642963,48.4457372 44.1716543,48.3466893 C43.7271272,48.2576434 43.2881745,48.1433122 42.8569877,48.0042666 C42.5440794,47.9099541 42.2523882,47.7572069 41.9977284,47.5543062 C41.6981199,47.2774605 41.6459554,46.8267803 41.8745679,46.4902489 C41.9850057,46.3614016 42.1242405,46.2596777 42.281284,46.1931052 C42.4638104,46.1163218 42.6568601,46.0667293 42.8541235,46.0459483 C43.0700455,46.0224365 43.2870693,46.0101565 43.5042963,46.0091591 C44.0561456,45.9956005 44.6032361,46.1130263 45.0996543,46.3515818 C45.4977778,46.5553375 45.7125926,46.951529 45.7584198,47.5571361 L45.7784691,47.8203205 L49.8914568,47.8203205 L49.865679,47.514687 C49.8233231,46.7405309 49.5871238,45.9888716 49.1782716,45.3271437 C48.8122518,44.7623326 48.3229246,44.2856268 47.7461728,43.9319834 C47.148231,43.5767939 46.4919713,43.3277736 45.8071111,43.1961991 C44.3564332,42.9243894 42.8669742,42.9243894 41.4162963,43.1961991 C40.7218029,43.3184643 40.0534728,43.5567596 39.44,43.9008541 C38.8431459,44.243277 38.3443788,44.730235 37.990716,45.3158239 C37.5999555,46.0061638 37.4087288,46.7893327 37.4379259,47.5797756 C37.420787,48.1504729 37.5613977,48.7149938 37.844642,49.2126508 C38.1085492,49.6518613 38.4687147,50.027059 38.8986667,50.3106674 C39.3458518,50.6042462 39.8328142,50.8338586 40.3450864,50.9926829 C40.8635062,51.1568194 41.4048395,51.3039762 41.9576296,51.4284936 C42.9966604,51.6274367 44.0198986,51.8998107 45.0194568,52.2435162 C45.6524444,52.4784012 45.9474568,52.7896946 45.9474568,53.2198454 C45.9575022,53.4504952 45.893329,53.6783595 45.7641481,53.8707315 C45.6339481,54.0507013 45.464644,54.1996087 45.268642,54.3065422 C45.0479711,54.4257348 44.8104704,54.511586 44.5640494,54.5612368 C43.9842008,54.6874641 43.3822073,54.6748502 42.8082963,54.5244476 C42.518355,54.4540005 42.2437305,54.3322332 41.9977284,54.1650452 C41.7684198,54.0054115 41.5776905,53.7976355 41.4392099,53.5566082 C41.2925242,53.2864607 41.2204117,52.9829161 41.2301235,52.676497 L41.2301235,52.393503 L37.1114074,52.393503 L37.1114074,52.676497 C37.1174317,53.5120822 37.3445346,54.3315812 37.7701728,55.0536463 C38.1561011,55.6712405 38.68034,56.1930818 39.3025185,56.5789838 C39.9471535,56.9703217 40.6570595,57.24533 41.3991111,57.3911765 C42.1763936,57.5505066 42.9682411,57.6301668 43.7620741,57.6288914 C44.5410501,57.6287745 45.3181253,57.5529443 46.0820741,57.4024962 C46.8174796,57.2645425 47.520602,56.9929905 48.1557531,56.6016233 C49.5060913,55.7714838 50.2978451,54.2859019 50.2265679,52.7161161 C50.2438666,52.125041 50.1046575,51.5397471 49.822716,51.0181523 C49.5654045,50.5606903 49.2106722,50.1638551 48.7830123,49.8550471 Z" id="Shape" fill="#346EA2"></path>
                        <path d="M57.6992593,39.3361614 L53.402963,39.3361614 L53.402963,43.3461859 L51.1545679,43.3461859 L51.1545679,46.3713914 L53.4058272,46.3713914 L53.4058272,53.9782692 C53.3816745,54.5884552 53.5105679,55.1950775 53.781037,55.7441516 C54.018515,56.1888383 54.3778139,56.5585497 54.8178765,56.8110388 C55.2698342,57.0618145 55.7652574,57.2269 56.2786173,57.2977885 C56.8342785,57.3789718 57.3953376,57.4187032 57.957037,57.4166459 C58.3207901,57.4166459 58.7045926,57.4166459 59.102716,57.3911765 C59.4654607,57.3768097 59.8270023,57.340899 60.1853827,57.2836388 L60.4259753,57.2440196 L60.4259753,53.8141327 L60.0822716,53.8820513 C59.9109586,53.9159361 59.7378914,53.9404992 59.5638519,53.9556297 C59.3834074,53.9726094 59.188642,53.9810992 58.9910123,53.9810992 C58.274963,53.9810992 58.0229136,53.8396022 57.9369877,53.754704 C57.8510617,53.6698058 57.7078519,53.4207711 57.7078519,52.7132862 L57.7078519,46.3742213 L60.4345679,46.3742213 L60.4345679,43.3490158 L57.710716,43.3490158 L57.6992593,39.3361614 Z" id="Shape" fill="#346EA2"></path>
                        <rect id="Rectangle-path" fill="#346EA2" x="61.7320494" y="43.3490158" width="4.2905679" height="13.9402828"></rect>
                        <rect id="Rectangle-path" fill="#346EA2" x="61.7320494" y="38.2522945" width="4.2905679" height="3.59402338"></rect>
                        <path d="M73.6700247,39.3361614 L69.3737284,39.3361614 L69.3737284,43.3461859 L67.1224691,43.3461859 L67.1224691,46.3713914 L69.3737284,46.3713914 L69.3737284,53.9782692 C69.3495757,54.5884552 69.4784692,55.1950775 69.7489383,55.7441516 C69.9864162,56.1888383 70.3457151,56.5585497 70.7857778,56.8110388 C71.2377354,57.0618145 71.7331586,57.2269 72.2465185,57.2977885 C72.8021797,57.3789718 73.3632388,57.4187032 73.9249383,57.4166459 C74.2886914,57.4166459 74.6724938,57.4166459 75.0706173,57.3911765 C75.4333619,57.3768097 75.7949036,57.340899 76.153284,57.2836388 L76.3938765,57.2440196 L76.3938765,53.8141327 L76.0501728,53.8820513 C75.8788599,53.9159361 75.7057927,53.9404992 75.5317531,53.9556297 C75.3513086,53.9726094 75.1565432,53.9810992 74.9589136,53.9810992 C74.2428642,53.9810992 73.9908148,53.8396022 73.9048889,53.754704 C73.818963,53.6698058 73.6757531,53.4207711 73.6757531,52.7132862 L73.6757531,46.3742213 L76.3996049,46.3742213 L76.3996049,43.3490158 L73.6757531,43.3490158 L73.6700247,39.3361614 Z" id="Shape" fill="#346EA2"></path>
                        <path d="M86.5818272,50.6559201 C86.5818272,51.9492025 86.3727407,52.8802526 85.9574321,53.4207711 C85.5421235,53.9612896 84.9005432,54.2018345 83.9868642,54.2018345 C83.1934815,54.2018345 82.6664691,53.9782692 82.3685926,53.5169891 C82.070716,53.0557089 81.8902716,52.2435162 81.8902716,51.1992685 L81.8902716,43.3603356 L77.5939753,43.3603356 L77.5939753,51.8699642 C77.587568,52.6502256 77.6643705,53.4289831 77.8231111,54.1933446 C77.9564827,54.8611223 78.2382224,55.4913208 78.648,56.0384653 C79.071944,56.5710929 79.6327804,56.9815584 80.272,57.22704 C81.0901808,57.5241392 81.9584406,57.6634357 82.8297284,57.6373812 C83.6689057,57.6340233 84.4970881,57.4485344 85.2557037,57.0940328 C85.8383321,56.8243334 86.3522131,56.4287839 86.7594074,55.9365875 L86.7594074,57.3006184 L90.8666667,57.3006184 L90.8666667,43.3490158 L86.5703704,43.3490158 L86.5818272,50.6559201 Z" id="Shape" fill="#346EA2"></path>
                        <path d="M98.4138272,39.3361614 L94.1175309,39.3361614 L94.1175309,43.3461859 L91.8662716,43.3461859 L91.8662716,46.3713914 L94.1175309,46.3713914 L94.1175309,53.9782692 C94.0933782,54.5884552 94.2222716,55.1950775 94.4927407,55.7441516 C94.7302187,56.1888383 95.0895176,56.5585497 95.5295802,56.8110388 C95.9815379,57.0618145 96.4769611,57.2269 96.990321,57.2977885 C97.5459822,57.3789718 98.1070413,57.4187032 98.6687407,57.4166459 C99.0324938,57.4166459 99.4162963,57.4166459 99.8144198,57.3911765 C100.177164,57.3768097 100.538706,57.340899 100.897086,57.2836388 L101.137679,57.2440196 L101.137679,53.8141327 L100.793975,53.8820513 C100.622662,53.9159361 100.449595,53.9404992 100.275556,53.9556297 C100.095111,53.9726094 99.9003457,53.9810992 99.702716,53.9810992 C98.9866667,53.9810992 98.7346173,53.8396022 98.6486914,53.754704 C98.5627654,53.6698058 98.4195556,53.4207711 98.4195556,52.7132862 L98.4195556,46.3742213 L101.143407,46.3742213 L101.143407,43.3490158 L98.4138272,43.3490158 L98.4138272,39.3361614 Z" id="Shape" fill="#346EA2"></path>
                        <path d="M115.475852,48.1655732 C115.238504,47.216979 114.818403,46.3224513 114.238519,45.5308993 C113.657863,44.7514634 112.901898,44.1159489 112.030222,43.6744589 C111.051998,43.1959039 109.970877,42.95896 108.879605,42.9839536 C107.874904,42.9722234 106.878506,43.164881 105.952395,43.5499416 C104.210893,44.276497 102.851585,45.6830624 102.197432,47.4354487 C101.848735,48.3614269 101.67402,49.3425124 101.681877,50.330477 C101.670837,51.3331403 101.840564,52.3297371 102.183111,53.2736143 C102.496712,54.1348719 102.983905,54.9243121 103.61521,55.5941648 C104.253275,56.2549459 105.030661,56.7689372 105.892247,57.0996927 C106.844576,57.459263 107.85734,57.6369216 108.876741,57.6232315 C110.314652,57.6624324 111.732962,57.2867732 112.958222,56.5421946 C114.103901,55.82056 114.943111,54.6121757 115.484444,52.9510011 L115.604741,52.580279 L111.738074,52.580279 L111.677926,52.7840347 C111.508342,53.2135264 111.197674,53.5742957 110.795753,53.8084729 C110.271167,54.1548898 109.650686,54.3318859 109.019951,54.3150321 C108.054716,54.3150321 107.301432,54.0716572 106.811654,53.5933974 C106.356247,53.1575867 106.084148,52.4614216 106.001086,51.4935822 L115.739358,51.4935822 L115.756543,51.2303978 C115.827496,50.2005529 115.732756,49.1661053 115.475852,48.1655732 L115.475852,48.1655732 Z M107.433185,46.5864668 C107.855665,46.3949117 108.317687,46.3038063 108.782222,46.3204525 C109.601383,46.3204525 110.214321,46.532698 110.600988,46.951529 C110.99913,47.4266168 111.269984,47.9929869 111.388642,48.5985539 L106.018272,48.5985539 C106.049397,48.4237688 106.090517,48.2508657 106.141432,48.080675 C106.233567,47.7761583 106.385383,47.4925043 106.588247,47.2458428 C106.819931,46.9687369 107.109021,46.7438979 107.436049,46.5864668 L107.433185,46.5864668 Z" id="Shape" fill="#346EA2"></path>
                        <path d="M22.3980247,18.2842402 C22.3980193,20.341516 20.7109138,22.0097015 18.6287342,22.01126 C16.5465546,22.0128185 14.8568929,20.3471606 14.8537327,18.2898872 C14.8505725,16.2326138 16.5351092,14.5618959 18.617284,14.5572097 C19.6192078,14.5549547 20.5808774,14.9466271 21.2901519,15.6458255 C21.9994264,16.3450238 22.3980273,17.2942975 22.3980247,18.2842402" id="Shape" fill="#E64C4C"></path>
                        <path d="M23.1083457,22.9932598 L27.418963,22.9932598 L27.418963,24.8270607 L27.4705185,24.8270607 C28.2780343,23.4578732 29.7590957,22.613676 31.362963,22.608388 C33.0614321,22.608388 34.5765926,23.1489065 35.306963,24.7761218 C36.3781728,23.361152 37.7100247,22.608388 39.5402469,22.608388 C43.8365432,22.608388 44.3205926,25.8345192 44.3205926,28.3899548 L44.3205926,36.3901942 L39.8810864,36.3901942 L39.8810864,28.517302 C39.8810864,27.0740328 39.1736296,26.219391 38.0250864,26.219391 C36.1203951,26.219391 35.9370864,27.6654902 35.9370864,29.833224 L35.9370864,36.3901942 L31.5061728,36.3901942 L31.5061728,28.7776565 C31.5061728,27.2013801 31.0364444,26.2307108 29.8334815,26.2307108 C28.2381235,26.2307108 27.5593086,27.1362915 27.5593086,29.8700132 L27.5593086,36.401514 L23.1083457,36.401514 L23.1083457,22.9932598 Z" id="Shape" fill="#346EA2"></path>
                        <rect id="Rectangle-path" fill="#346EA2" x="16.4462222" y="22.9904299" width="4.44237037" height="13.3969344"></rect>
                        <path d="M50.6705185,29.55023 C50.6705185,31.89625 51.3493333,33.4215875 53.3628642,33.4215875 C55.3763951,33.4215875 56.0265679,31.3840309 56.0265679,29.55023 C56.0265679,27.8522662 55.3477531,25.9618665 53.388642,25.9618665 C52.185679,25.9618665 50.6705185,26.7882089 50.6705185,29.55023 L50.6705185,29.55023 Z M46.4,22.9932598 L50.633284,22.9932598 L50.633284,24.5412368 L50.6848395,24.5412368 C51.5044476,23.3040515 52.9121241,22.5722559 54.4082963,22.6055581 C58.667358,22.6055581 60.4689383,26.219391 60.4689383,29.9860407 C60.4689383,33.4696965 58.5871605,36.7778959 54.7405432,36.7778959 C53.0678519,36.7778959 51.7875556,36.1581391 50.8738765,34.946925 L50.822321,34.946925 L50.822321,40.8897983 L46.4,40.8897983 L46.4,22.9932598 Z" id="Shape" fill="#346EA2"></path>
                        <path d="M67.4948148,34.0668137 C69.6114568,34.0668137 70.3160494,32.8782391 70.2129383,30.1048982 C69.585679,30.4925999 68.4371358,30.5690083 67.469037,30.8265328 C66.5009383,31.0840573 65.6388148,31.471759 65.6388148,32.5244966 C65.6388148,33.5772342 66.4980741,34.0470041 67.4919506,34.0470041 L67.4948148,34.0668137 Z M61.7435062,27.1051621 C61.8237037,25.3505995 62.6571852,24.2129638 63.8601481,23.5167986 C65.0631111,22.8206335 66.6298272,22.5885784 68.1707654,22.5885784 C71.3843951,22.5885784 74.4920494,23.2847436 74.4920494,27.0796927 L74.4920494,32.9404977 C74.4920494,34.0724736 74.4920494,35.3148171 75.0161975,36.3732146 L70.5480494,36.3732146 C70.4090512,35.9636947 70.3215145,35.5388497 70.2874074,35.1082315 C69.1417284,36.2968062 67.4375309,36.7580863 65.8192593,36.7580863 C63.2414815,36.7580863 61.1935802,35.4676339 61.1935802,32.7056127 C61.1935802,28.3446757 65.9997037,28.6786086 69.0844444,28.0588518 C69.8405926,27.9032051 70.2587654,27.6456806 70.2587654,26.8193382 C70.2587654,25.8147097 69.0328889,25.4270079 68.1163457,25.4270079 C66.8876049,25.4270079 66.1114074,25.9675264 65.8965926,27.1051621 L61.7435062,27.1051621 Z" id="Shape" fill="#346EA2"></path>
                        <path d="M85.3387654,27.8975452 C85.3129877,26.7655694 84.2933333,25.9618665 83.1705679,25.9618665 C80.6873086,25.9618665 80.3063704,28.0531919 80.3063704,29.9237821 C80.3063704,31.6528752 81.0625185,33.4329072 82.9442963,33.4329072 C84.4852346,33.4329072 85.2700247,32.5556259 85.4791111,31.1378262 L89.7754074,31.1378262 C89.3830123,34.7261897 86.564642,36.7977055 82.9586173,36.7977055 C78.88,36.7977055 75.8525432,34.0356844 75.8525432,29.9322719 C75.8525432,25.6873624 78.5964444,22.6281976 82.9586173,22.6281976 C86.3269136,22.6281976 89.3314568,24.3827602 89.6436543,27.9201848 L85.3387654,27.8975452 Z" id="Shape" fill="#346EA2"></path>
                        <path d="M99.2644938,25.8316893 L96.5234568,25.8316893 L96.5234568,31.9245494 C96.5234568,32.9829468 97.150716,33.2150019 98.1159506,33.2150019 C98.4825679,33.2150019 98.874963,33.164063 99.2616296,33.164063 L99.2616296,36.3901942 C98.4510617,36.4156637 97.643358,36.5203714 96.8299259,36.5203714 C93.0434568,36.5203714 92.0782222,35.4365045 92.0782222,31.7943722 L92.0782222,25.8316893 L89.8298272,25.8316893 L89.8298272,23.0017496 L92.0782222,23.0017496 L92.0782222,18.9407862 L96.5234568,18.9407862 L96.5234568,22.9904299 L99.267358,22.9904299 L99.2644938,25.8316893 Z" id="Shape" fill="#346EA2"></path>
                        <path d="M23.1083457,22.9932598 L27.418963,22.9932598 L27.418963,24.8270607 L27.4705185,24.8270607 C28.2780343,23.4578732 29.7590957,22.613676 31.362963,22.608388 C33.0614321,22.608388 34.5765926,23.1489065 35.306963,24.7761218 C36.3781728,23.361152 37.7100247,22.608388 39.5402469,22.608388 C43.8365432,22.608388 44.3205926,25.8345192 44.3205926,28.3899548 L44.3205926,36.3901942 L39.8810864,36.3901942 L39.8810864,28.517302 C39.8810864,27.0740328 39.1736296,26.219391 38.0250864,26.219391 C36.1203951,26.219391 35.9370864,27.6654902 35.9370864,29.833224 L35.9370864,36.3901942 L31.5061728,36.3901942 L31.5061728,28.7776565 C31.5061728,27.2013801 31.0364444,26.2307108 29.8334815,26.2307108 C28.2381235,26.2307108 27.5593086,27.1362915 27.5593086,29.8700132 L27.5593086,36.401514 L23.1083457,36.401514 L23.1083457,22.9932598 Z" id="Shape" fill="#346EA2"></path>
                        <rect id="Rectangle-path" fill="#346EA2" x="16.4462222" y="22.9904299" width="4.44237037" height="13.3969344"></rect>
                        <path d="M14.2694321,32.5443062 C6.83995233,30.3296975 2.32373646,22.9064815 3.82977813,15.3848505 C5.3358198,7.8632194 12.3725492,2.69822263 20.0958341,3.44547895 C27.819119,4.19273527 33.7080905,10.6083413 33.7087407,18.2757504 C33.7081442,19.0939333 33.6401335,19.9107104 33.5053827,20.7179883 C34.2140236,20.901872 34.8821209,21.2136955 35.4759506,21.6377187 C35.8976581,21.3562044 36.3502074,21.1226682 36.8249877,20.9415535 C38.2801292,11.2260893 31.6611396,2.12559041 21.8774163,0.390024755 C12.093693,-1.3455409 2.68400825,4.91158068 0.627657364,14.5203945 C-1.42869352,24.1292083 4.61207149,33.614207 14.2694321,35.9402338 L14.2694321,32.5443062 Z" id="Shape" fill="#346EA2"></path>
                        <path d="M14.2694321,24.3572907 C11.0721819,22.1277103 10.1301441,17.8533587 12.0996287,14.5121421 C14.0691133,11.1709255 18.2967041,9.87135982 21.8370728,11.5188421 C25.3774415,13.1663243 27.0559993,17.2142689 25.7033086,20.8425057 L29.1059753,20.8425057 C29.2950123,20.7745871 29.4840494,20.7179883 29.6788148,20.6670494 C30.9595116,14.8904207 27.464984,9.12767644 21.705615,7.51863086 C15.946246,5.90958527 9.9149362,9.01101254 7.9444308,14.5949233 C5.97392539,20.1788341 8.74607361,26.3130412 14.2694321,28.5908805 L14.2694321,24.3572907 Z" id="Shape" fill="#346EA2"></path>
                    </g>
                </g>
            </g>
        </g>
    </g>
</svg>