<?xml version="1.0" encoding="utf-8"?>
<!-- Generator: Adobe Illustrator 22.1.0, SVG Export Plug-In . SVG Version: 6.00 Build 0)  -->
<svg version="1.1" id="Layer_1" xmlns="http://www.w3.org/2000/svg" xmlns:xlink="http://www.w3.org/1999/xlink" x="0px" y="0px"
	 viewBox="0 0 14 20.4" style="enable-background:new 0 0 14 20.4;" xml:space="preserve">
<style type="text/css">
	.st0{fill:#414141;}
</style>
<g id="ic_place_white" transform="translate(-750.5 -786)">
	<path id="ic_place_white-2" class="st0" d="M757.5,786c-3.9,0-7,3.2-7,7c0,0,0,0.1,0,0.1c0,5.3,7,13.2,7,13.2s7-8,7-13.2
		C764.6,789.3,761.5,786.1,757.5,786C757.6,786,757.5,786,757.5,786z M757.5,795.7c-1.4,0-2.5-1.1-2.5-2.5c0,0,0,0,0,0
		c0-1.4,1.1-2.5,2.5-2.5s2.5,1.1,2.5,2.5C760,794.5,758.9,795.7,757.5,795.7C757.5,795.7,757.5,795.7,757.5,795.7z"/>
</g>
</svg>
