<?xml version="1.0" encoding="UTF-8"?>
<svg width="46px" height="77px" viewBox="0 0 46 77" version="1.1" xmlns="http://www.w3.org/2000/svg" xmlns:xlink="http://www.w3.org/1999/xlink">
    <!-- Generator: Sketch 42 (36781) - http://www.bohemiancoding.com/sketch -->
    <title>noun_815814_cc</title>
    <desc>Created with Sketch.</desc>
    <defs></defs>
    <g id="Pages" stroke="none" stroke-width="1" fill="none" fill-rule="evenodd">
        <g id="Home-Desktop" transform="translate(-1130.000000, -2069.000000)" fill-rule="nonzero" fill="#FFFFFF">
            <g id="Benefits-of-Membership" transform="translate(100.000000, 1464.000000)">
                <g id="4-Benefits" transform="translate(0.000000, 440.000000)">
                    <g id="Group-5" transform="translate(900.000000, 80.000000)">
                        <g id="noun_815814_cc" transform="translate(130.000000, 85.000000)">
                            <path d="M26.7440968,43.4 L20.9561952,49.2 L19.2597413,47.5 C18.8605757,47.1 18.2618273,47.1 17.8626617,47.5 C17.463496,47.9 17.463496,48.5 17.8626617,48.9 L20.2576554,51.3 C20.4572382,51.5 20.7566124,51.6 20.9561952,51.6 C21.1557781,51.6 21.4551523,51.5 21.6547351,51.3 L28.1411765,44.8 C28.5403421,44.4 28.5403421,43.8 28.1411765,43.4 C27.7420108,43 27.043471,43 26.7440968,43.4 Z" id="Shape"></path>
                            <path d="M5.48852733,76.6 L40.6151022,76.6 C41.2138506,76.6 41.6130163,76.2 41.6130163,75.6 L41.6130163,23.8 L44.9061327,23.8 C45.5048811,23.8 45.9040467,23.4 45.9040467,22.8 L45.9040467,17.9 C45.9040467,17.3 45.5048811,16.9 44.9061327,16.9 L36.4238632,16.9 C36.3240718,8.5 32.5319983,5.6 31.7336671,5.1 C32.0330413,4.3 31.7336671,3.3 31.0351272,2.8 L28.0413851,0.8 C27.1432624,0.2 26.0455569,0.5 25.4468085,1.4 L24.9478515,2 C24.349103,2.9 24.6484773,4 25.5465999,4.6 L28.5403421,6.6 C29.1390905,7 29.8376304,7 30.4363788,6.7 L30.5361702,6.8 C30.5361702,6.8 34.2284522,9 34.3282436,16.9 L1.19749687,16.9 C0.598748436,16.9 0.199582812,17.3 0.199582812,17.9 L0.199582812,22.8 C0.199582812,23.4 0.598748436,23.8 1.19749687,23.8 L4.49061327,23.8 L4.49061327,75.6 C4.49061327,76.2 4.88977889,76.6 5.48852733,76.6 Z M39.5173967,74.6 L6.48644139,74.6 L6.48644139,23.8 L39.6171882,23.8 L39.6171882,74.6 L39.5173967,74.6 Z M2.19541093,18.9 L43.8084272,18.9 L43.8084272,21.8 L2.19541093,21.8 L2.19541093,18.9 Z" id="Shape"></path>
                            <path d="M13.4718398,61.9 L32.4322069,61.9 C33.0309554,61.9 33.430121,61.5 33.430121,60.9 L33.430121,33.9 C33.430121,33.3 33.0309554,32.9 32.4322069,32.9 L13.4718398,32.9 C12.8730914,32.9 12.4739257,33.3 12.4739257,33.9 L12.4739257,60.9 C12.4739257,61.4 12.9728828,61.9 13.4718398,61.9 Z M14.4697539,34.9 L31.4342929,34.9 L31.4342929,59.9 L14.4697539,59.9 L14.4697539,34.9 Z" id="Shape"></path>
                        </g>
                    </g>
                </g>
            </g>
        </g>
    </g>
</svg>