<?xml version="1.0" encoding="UTF-8"?>
<svg width="70px" height="55px" viewBox="0 0 70 55" version="1.1" xmlns="http://www.w3.org/2000/svg" xmlns:xlink="http://www.w3.org/1999/xlink">
    <!-- Generator: Sketch 42 (36781) - http://www.bohemiancoding.com/sketch -->
    <title>Group</title>
    <desc>Created with Sketch.</desc>
    <defs></defs>
    <g id="Pages" stroke="none" stroke-width="1" fill="none" fill-rule="evenodd">
        <g id="Home-Desktop" transform="translate(-815.000000, -2080.000000)" fill-rule="nonzero" fill="#FFFFFF">
            <g id="Benefits-of-Membership" transform="translate(100.000000, 1464.000000)">
                <g id="4-Benefits" transform="translate(0.000000, 440.000000)">
                    <g id="Group-4" transform="translate(600.000000, 80.000000)">
                        <g id="Group" transform="translate(115.000000, 96.000000)">
                            <path d="M66.6102362,12.3681592 L3.38976378,12.3681592 C1.51574803,12.3681592 0,13.8731343 0,15.7338308 L0,51.6069652 C0,53.4676617 1.51574803,54.9726368 3.38976378,54.9726368 L66.6102362,54.9726368 C68.484252,54.9726368 70,53.4676617 70,51.6069652 L70,15.7338308 C70,13.8731343 68.484252,12.3681592 66.6102362,12.3681592 Z M3.38976378,14.6119403 L66.6102362,14.6119403 C67.230315,14.6119403 67.7401575,15.1181592 67.7401575,15.7338308 L67.7401575,22.4651741 L2.25984252,22.4651741 L2.25984252,15.7338308 C2.25984252,15.1181592 2.76968504,14.6119403 3.38976378,14.6119403 Z M48.5452756,24.6952736 L53.0649606,24.6952736 L53.0649606,31.4266169 L48.5452756,31.4266169 L48.5452756,24.6952736 Z M16.9350394,24.6952736 L21.4547244,24.6952736 L21.4547244,31.4266169 L16.9350394,31.4266169 L16.9350394,24.6952736 L16.9350394,24.6952736 Z M66.6102362,52.7288557 L3.38976378,52.7288557 C2.76968504,52.7288557 2.25984252,52.2226368 2.25984252,51.6069652 L2.25984252,24.6952736 L14.6751969,24.6952736 L14.6751969,33.6567164 L23.7007874,33.6567164 L23.7007874,24.6952736 L46.2854331,24.6952736 L46.2854331,33.6567164 L55.3110236,33.6567164 L55.3110236,24.6952736 L67.726378,24.6952736 L67.726378,51.5932836 C67.7401575,52.2226368 67.230315,52.7288557 66.6102362,52.7288557 Z" id="Shape"></path>
                            <path d="M21.4547244,5.63681592 C21.4547244,3.7761194 22.9704724,2.27114428 24.8444882,2.27114428 L45.1692913,2.27114428 C47.0433071,2.27114428 48.5590551,3.7761194 48.5590551,5.63681592 L48.5590551,10.1243781 L50.8188976,10.1243781 L50.8188976,5.63681592 C50.8188976,2.54477612 48.2834646,0.0273631841 45.1692913,0.0273631841 L24.8444882,0.0273631841 C21.730315,0.0273631841 19.1948819,2.54477612 19.1948819,5.63681592 L19.1948819,10.1243781 L21.4547244,10.1243781 L21.4547244,5.63681592 L21.4547244,5.63681592 Z" id="Shape"></path>
                            <rect id="Rectangle-path" x="33.8700787" y="28.0609453" width="2.25984252" height="2.24378109"></rect>
                            <rect id="Rectangle-path" x="29.3503937" y="28.0609453" width="2.25984252" height="2.24378109"></rect>
                            <rect id="Rectangle-path" x="38.3897638" y="28.0609453" width="2.25984252" height="2.24378109"></rect>
                        </g>
                    </g>
                </g>
            </g>
        </g>
    </g>
</svg>