<?xml version="1.0" encoding="UTF-8"?>
<svg width="60px" height="60px" viewBox="0 0 60 60" version="1.1" xmlns="http://www.w3.org/2000/svg" xmlns:xlink="http://www.w3.org/1999/xlink">
    <!-- Generator: Sketch 42 (36781) - http://www.bohemiancoding.com/sketch -->
    <title>Group</title>
    <desc>Created with Sketch.</desc>
    <defs></defs>
    <g id="Pages" stroke="none" stroke-width="1" fill="none" fill-rule="evenodd">
        <g id="Home-Desktop" transform="translate(-220.000000, -2086.000000)" fill-rule="nonzero" fill="#FFFFFF">
            <g id="Benefits-of-Membership" transform="translate(100.000000, 1464.000000)">
                <g id="4-Benefits" transform="translate(0.000000, 440.000000)">
                    <g id="Group-2" transform="translate(0.000000, 80.000000)">
                        <g id="Group" transform="translate(120.000000, 102.000000)">
                            <path d="M58.8,0 L27.6,0 C26.9376,0 26.4,0.5376 26.4,1.2 L26.4,4.8 L18.168,4.8 L1.53,0.0468 C1.1676,-0.0576 0.7776,0.0156 0.4776,0.2424 C0.1776,0.4692 0,0.8232 0,1.2 L0,58.8 C0,59.1756 0.1764,59.5308 0.4776,59.7588 C0.6876,59.9172 0.942,60 1.2,60 C1.3104,60 1.422,59.9844 1.53,59.9544 L18.1704,55.2 L54,55.2 C54.6636,55.2 55.2,54.6636 55.2,54 L55.2,43.2 L58.8,43.2 C59.4636,43.2 60,42.6636 60,42 L60,1.2 C60,0.5376 59.4636,0 58.8,0 Z M2.4,2.7912 L16.8,6.906 L16.8,53.0964 L2.4,57.2088 L2.4,2.7912 Z M52.8,52.8 L19.2,52.8 L19.2,7.2 L26.4,7.2 L26.4,42 C26.4,42.6636 26.9376,43.2 27.6,43.2 L52.8,43.2 L52.8,52.8 Z M57.6,40.8 L28.8,40.8 L28.8,2.4 L57.6,2.4 L57.6,40.8 Z" id="Shape"></path>
                            <path d="M37.2,12 L49.2,12 C49.8636,12 50.4,11.4624 50.4,10.8 C50.4,10.1376 49.8636,9.6 49.2,9.6 L37.2,9.6 C36.5364,9.6 36,10.1376 36,10.8 C36,11.4624 36.5364,12 37.2,12 Z" id="Shape"></path>
                            <path d="M37.2,19.2 L49.2,19.2 C49.8636,19.2 50.4,18.6624 50.4,18 C50.4,17.3376 49.8636,16.8 49.2,16.8 L37.2,16.8 C36.5364,16.8 36,17.3376 36,18 C36,18.6624 36.5364,19.2 37.2,19.2 Z" id="Shape"></path>
                            <path d="M37.2,26.4 L49.2,26.4 C49.8636,26.4 50.4,25.8624 50.4,25.2 C50.4,24.5376 49.8636,24 49.2,24 L37.2,24 C36.5364,24 36,24.5376 36,25.2 C36,25.8624 36.5364,26.4 37.2,26.4 Z" id="Shape"></path>
                            <path d="M37.2,33.6 L49.2,33.6 C49.8636,33.6 50.4,33.0636 50.4,32.4 C50.4,31.7364 49.8636,31.2 49.2,31.2 L37.2,31.2 C36.5364,31.2 36,31.7364 36,32.4 C36,33.0636 36.5364,33.6 37.2,33.6 Z" id="Shape"></path>
                        </g>
                    </g>
                </g>
            </g>
        </g>
    </g>
</svg>