<?xml version="1.0" encoding="UTF-8"?>
<svg width="77px" height="71px" viewBox="0 0 77 71" version="1.1" xmlns="http://www.w3.org/2000/svg" xmlns:xlink="http://www.w3.org/1999/xlink">
    <!-- Generator: Sketch 42 (36781) - http://www.bohemiancoding.com/sketch -->
    <title>Group</title>
    <desc>Created with Sketch.</desc>
    <defs></defs>
    <g id="Pages" stroke="none" stroke-width="1" fill="none" fill-rule="evenodd">
        <g id="Home-Desktop" transform="translate(-511.000000, -2086.000000)" fill-rule="nonzero" fill="#FFFFFF">
            <g id="Benefits-of-Membership" transform="translate(100.000000, 1464.000000)">
                <g id="4-Benefits" transform="translate(0.000000, 440.000000)">
                    <g id="Group-3" transform="translate(300.000000, 80.000000)">
                        <g id="Group" transform="translate(111.000000, 102.000000)">
                            <path d="M47.1804667,6.44155952 C39.7722111,6.44155952 33.7456778,12.3954167 33.7456778,19.7151786 C33.7456778,27.03325 39.7722111,32.9871071 47.1804667,32.9871071 C54.5878667,32.9871071 60.6144,27.03325 60.6144,19.7151786 C60.6144,12.3954167 54.5878667,6.44155952 47.1804667,6.44155952 Z M47.1804667,30.267131 C41.2899667,30.267131 36.498,25.5329524 36.498,19.7143333 C36.498,13.894869 41.2908222,9.16069048 47.1804667,9.16069048 C53.0701111,9.16069048 57.8612222,13.8957143 57.8612222,19.7143333 C57.8612222,25.5329524 53.0692556,30.267131 47.1804667,30.267131 Z" id="Shape"></path>
                            <path d="M74.5351444,24.6353095 C75.9656333,23.4612738 76.8793667,21.6913452 76.8793667,19.7143333 C76.8793667,16.1871548 73.9739,13.3167262 70.4045222,13.3167262 C68.7447444,13.3167262 67.2287,13.937131 66.0805444,14.9556429 C63.9322444,6.62413095 56.2698889,0.445440476 47.1565111,0.445440476 L31.4040222,0.701547619 C30.7751889,0.711690476 30.2327667,1.14191667 30.0873222,1.74710714 L29.5945222,3.80188095 L23.2565667,3.79680952 L22.9134889,1.79782143 C22.8091111,1.13430952 22.2316111,0.845238095 21.5523,0.845238095 L21.5411778,0.845238095 L1.36546667,0.805511905 C0.988166667,0.808047619 0.628833333,0.864678571 0.370455556,1.13684524 C0.112933333,1.4090119 -0.0205333333,1.72428571 0.00256666667,2.09703571 L0.487666667,10.0667857 C0.520177778,10.6085833 0.875233333,11.0658571 1.39198889,11.2509643 L27.7003222,20.6838214 C28.2093778,30.8630238 36.7521,38.9866071 47.1804667,38.9866071 C56.2724556,38.9866071 63.9322444,32.805381 66.0822556,24.4747143 C67.0028333,25.2920595 68.1638222,25.8465357 69.4437333,26.035869 C68.8183222,34.1307143 61.0798222,39.9915952 54.2062889,45.1915 C48.3628444,49.6120952 42.8436556,53.7875714 42.3234778,58.8437857 C42.0616778,61.3871071 43.0515556,63.8949286 45.3478667,66.50925 C47.7049222,69.192881 50.7122,70.5554048 53.9966778,70.5554048 C56.4384333,70.5554048 59.0316222,69.8031429 61.6256667,68.2825595 C67.2150111,65.0064167 72.1284667,58.5733095 74.7704222,51.0760476 C76.9033222,45.0224524 78.5793556,35.5355 74.5351444,24.6353095 Z M47.1804667,36.26325 C37.9438889,36.26325 30.4295444,28.8395238 30.4295444,19.7143333 C30.4295444,19.1421071 30.0667889,18.6315833 29.5226556,18.4363333 L3.18095556,8.98657143 L2.83702222,3.31333333 L20.3742,3.17471429 L20.7147111,5.36303571 C20.8182333,6.02570238 21.3948778,6.49058333 22.0733333,6.49142857 L30.6819333,6.47452381 L30.6827889,6.47452381 C31.3210333,6.47452381 31.8762889,6.06627381 32.0217333,5.45263095 L32.5196667,3.39194048 L47.1804667,3.1595 C56.4161889,3.1595 63.9305333,10.5866071 63.9305333,19.7117976 C63.9305333,28.8361429 56.4153333,36.26325 47.1804667,36.26325 Z M66.6828556,19.7143333 C66.6828556,17.6866071 68.3520444,16.0358571 70.4045222,16.0358571 C72.457,16.0358571 74.1270444,17.6857619 74.1270444,19.7143333 C74.1270444,21.7420595 72.4578556,23.391119 70.4045222,23.391119 C68.3529,23.391119 66.6828556,21.7420595 66.6828556,19.7143333 Z M60.6896889,66.7230952 C55.3527333,69.8530119 50.2647444,69.3407976 46.7330111,65.3208452 C44.7866222,63.104631 43.9413333,61.045631 44.1492333,59.0263571 C44.5889889,54.7494524 49.8010333,50.8055714 55.3210778,46.62925 C62.5445333,41.1639405 70.6825778,35.0004643 71.2823222,26.0451667 C71.8598222,25.9674048 72.4142222,25.8203333 72.9326889,25.6031071 C79.5170444,43.8898333 70.1273222,61.1901667 60.6896889,66.7230952 Z" id="Shape"></path>
                        </g>
                    </g>
                </g>
            </g>
        </g>
    </g>
</svg>