<?xml version="1.0" encoding="UTF-8"?>
<svg width="66px" height="55px" viewBox="0 0 66 55" version="1.1" xmlns="http://www.w3.org/2000/svg" xmlns:xlink="http://www.w3.org/1999/xlink">
    <!-- Generator: Sketch 42 (36781) - http://www.bohemiancoding.com/sketch -->
    <title>Icon</title>
    <desc>Created with Sketch.</desc>
    <defs>
        <polygon id="path-1" points="65.3082532 38.6535833 65.3082532 40.32025 0.000334177215 40.32025 0.000334177215 38.6535833 65.3082532 38.6535833"></polygon>
    </defs>
    <g id="Pages" stroke="none" stroke-width="1" fill="none" fill-rule="evenodd">
        <g id="Resources-Desktop" transform="translate(-269.000000, -1438.000000)">
            <g id="Resource-List" transform="translate(200.000000, 1372.000000)">
                <g id="Text" transform="translate(0.000000, 4.000000)">
                    <g id="Icon" transform="translate(69.000000, 62.000000)">
                        <path d="M32.6544608,17.4019167 C32.3754228,17.4019167 32.0972203,17.4735833 31.8490937,17.6160833 L27.4396253,20.1560833 C26.9425367,20.4419167 26.6342582,20.97525 26.6342582,21.54775 L26.6342582,26.6260833 C26.6342582,27.1985833 26.9425367,27.7319167 27.4396253,28.01775 L31.8490937,30.5569167 C32.3445114,30.84275 32.9610684,30.8435833 33.4598278,30.5569167 L37.8692962,28.01775 C38.3663848,27.7319167 38.6746633,27.1985833 38.6746633,26.6260833 L38.6746633,21.54775 C38.6746633,20.9760833 38.3663848,20.4419167 37.8692962,20.1560833 L33.4598278,17.6169167 C33.2108658,17.4735833 32.9326633,17.4019167 32.6544608,17.4019167 M32.6544608,32.43775 C32.0863595,32.43775 31.5199291,32.2919167 31.0136506,32.00025 L26.6041823,29.4610833 C25.5924608,28.8785833 24.9633722,27.79275 24.9633722,26.6260833 L24.9633722,21.54775 C24.9633722,20.3819167 25.5924608,19.29525 26.6041823,18.71275 L31.0136506,16.17275 C32.0245367,15.5910833 33.281043,15.59025 34.2952709,16.17275 L38.7047392,18.71275 C39.7172962,19.2960833 40.3455494,20.3819167 40.3455494,21.54775 L40.3455494,26.6260833 C40.3455494,27.7919167 39.7172962,28.87775 38.7047392,29.4610833 L34.2952709,32.0010833 C33.788157,32.2919167 33.2217266,32.43775 32.6544608,32.43775" id="Fill-1" fill="#346EA2"></path>
                        <path d="M1.67088608,52.5175 L63.6373671,52.5175 L63.6373671,17.2516667 C63.6373671,12.2858333 59.5879747,8.24583333 54.6095696,8.24583333 L10.699519,8.24583333 C5.72111392,8.24583333 1.67088608,12.2858333 1.67088608,17.2516667 L1.67088608,52.5175 Z M64.4728101,54.1841667 L0.835443038,54.1841667 C0.374278481,54.1841667 0,53.8108333 0,53.3508333 L0,17.2516667 C0,11.3666667 4.79962025,6.57916667 10.699519,6.57916667 L54.6095696,6.57916667 C60.5086329,6.57916667 65.3082532,11.3666667 65.3082532,17.2516667 L65.3082532,53.3508333 C65.3082532,53.8108333 64.9348101,54.1841667 64.4728101,54.1841667 L64.4728101,54.1841667 Z" id="Fill-3" fill="#346EA2"></path>
                        <path d="M23.3185519,6.57875 L41.9907038,6.57875 C41.5921975,4.26625 39.5670835,2.49958333 37.1367797,2.49958333 L28.1724759,2.49958333 C25.7413367,2.49958333 23.7170582,4.26625 23.3185519,6.57875 M42.8971595,8.24541667 L22.4120962,8.24541667 C21.9500962,8.24541667 21.5766532,7.87208333 21.5766532,7.41208333 C21.5766532,3.78458333 24.534957,0.832916667 28.1724759,0.832916667 L37.1367797,0.832916667 C40.7742987,0.832916667 43.7326025,3.78458333 43.7326025,7.41208333 C43.7326025,7.87208333 43.3583241,8.24541667 42.8971595,8.24541667" id="Fill-5" fill="#346EA2"></path>
                        <path d="M64.4731443,24.92025 L39.5101063,24.92025 C39.0481063,24.92025 38.6746633,24.5469167 38.6746633,24.0869167 C38.6746633,23.6269167 39.0481063,23.2535833 39.5101063,23.2535833 L64.4731443,23.2535833 C64.9351443,23.2535833 65.3085873,23.6269167 65.3085873,24.0869167 C65.3085873,24.5469167 64.9351443,24.92025 64.4731443,24.92025" id="Fill-8" fill="#346EA2"></path>
                        <path d="M25.7988152,24.92025 L0.835777215,24.92025 C0.373777215,24.92025 0.000334177215,24.5469167 0.000334177215,24.0869167 C0.000334177215,23.6269167 0.373777215,23.2535833 0.835777215,23.2535833 L25.7988152,23.2535833 C26.2608152,23.2535833 26.6342582,23.6269167 26.6342582,24.0869167 C26.6342582,24.5469167 26.2608152,24.92025 25.7988152,24.92025" id="Fill-11" fill="#346EA2"></path>
                        <path d="M64.4731443,40.32025 L0.835777215,40.32025 C0.373777215,40.32025 0.000334177215,39.9469167 0.000334177215,39.4869167 C0.000334177215,39.0269167 0.373777215,38.6535833 0.835777215,38.6535833 L64.4731443,38.6535833 C64.9351443,38.6535833 65.3085873,39.0269167 65.3085873,39.4869167 C65.3085873,39.9469167 64.9351443,40.32025 64.4731443,40.32025" id="Fill-13" fill="#346EA2"></path>
                        <mask id="mask-2" fill="white">
                            <use xlink:href="#path-1"></use>
                        </mask>
                        <g id="Clip-14"></g>
                    </g>
                </g>
            </g>
        </g>
    </g>
</svg>